PathFileType	4	(X/Y/Z)	./resultDataOpenSim/trcMotMarkerGrf/sub09/qtm-01-04.trc
DataRate	CameraRate	NumFrames	NumMarkers	Units	OrigDataRate	OrigDataStartFrame	OrigNumFrames
250.000000	250.000000	14	24	m	250.000000	59	468
Frame#	Time	L.Toe.Tip			R.Toe.Tip			L.Ankle.Lat			R.Ankle.Lat			L.Ankle.Med			R.Ankle.Med			L.Heel			R.Heel			L.Knee.Lat			R.Knee.Lat			L.Knee.Med			R.Knee.Med			L.Thigh.Upper			R.Thigh.Upper			L.ASIS			R.ASIS			V.Sacral			L.Acromium			R.Acromium			C7			L.Elbow			R.Elbow			L.Wrist.Lat			R.Wrist.Lat
		X1	Y1	Z1	X2	Y2	Z2	X3	Y3	Z3	X4	Y4	Z4	X5	Y5	Z5	X6	Y6	Z6	X7	Y7	Z7	X8	Y8	Z8	X9	Y9	Z9	X10	Y10	Z10	X11	Y11	Z11	X12	Y12	Z12	X13	Y13	Z13	X14	Y14	Z14	X15	Y15	Z15	X16	Y16	Z16	X17	Y17	Z17	X18	Y18	Z18	X19	Y19	Z19	X20	Y20	Z20	X21	Y21	Z21	X22	Y22	Z22	X23	Y23	Z23	X24	Y24	Z24

59	0.232	-1.4297175	0.094757399	-0.043021764	-0.63433339	0.040305441	0.11453006	-1.4453624	0.2515359	-0.081721748	-0.78368897	0.053067838	0.15280772	-1.4212683	0.23460514	0.011897974	-0.7754796	0.092087177	0.059911447	-1.5046386	0.29911097	-0.033102725	-0.84954574	0.03092258	0.10361128	-1.0659689	0.4156137	-0.10292182	-0.7610435	0.50963662	0.20249226	-1.0572929	0.40199941	0.021330916	-0.77692848	0.49420361	0.076423375	-1.0120003	0.82024964	-0.11538951	-0.97611094	0.85374463	0.25746142	-0.91783146	0.90493501	-0.063563697	-0.90470122	0.93538051	0.17518108	-1.0783707	0.97896239	0.059690386	-0.89600595	1.3745406	-0.092446031	-0.93039911	1.3740655	0.23585524	-0.97737616	1.4283495	0.071577346	-1.0325978	1.0271416	-0.1723127	-1.0821272	1.0431009	0.30683407	-0.82217732	0.85600724	-0.1561511	-0.96881159	0.79896843	0.3455734
60	0.236	-1.415575	0.098099346	-0.043825345	-0.63412092	0.04025222	0.11424156	-1.4319165	0.2546683	-0.081098684	-0.78360447	0.0527428	0.15295244	-1.4083644	0.23697383	0.012819176	-0.77523005	0.092026742	0.059681609	-1.4915481	0.30196974	-0.032001989	-0.84932334	0.03141412	0.10341106	-1.0519082	0.41586001	-0.10199783	-0.75703672	0.50984425	0.20227264	-1.0451696	0.40231302	0.022608506	-0.77391859	0.49415432	0.076197988	-1.0051747	0.82094695	-0.11492863	-0.96871577	0.85536335	0.25800669	-0.91162782	0.90617265	-0.063253229	-0.898066	0.93668619	0.17548569	-1.072131	0.98061061	0.060162668	-0.88959991	1.3757091	-0.092286121	-0.92328215	1.3752481	0.23610213	-0.97070273	1.4298158	0.072158065	-1.0268514	1.0285733	-0.17161813	-1.0749567	1.0441393	0.30752167	-0.81780963	0.85565526	-0.15632742	-0.96025265	0.80021508	0.34562313
61	0.24	-1.4009656	0.10118751	-0.04444585	-0.63393135	0.040229044	0.11394633	-1.4183012	0.25749479	-0.080401581	-0.78279169	0.052494967	0.15267626	-1.3959013	0.23899709	0.014058065	-0.77493401	0.091995454	0.059482396	-1.4783192	0.30444709	-0.031152903	-0.84908677	0.031962057	0.10316457	-1.0377938	0.41638392	-0.10121172	-0.75328594	0.50991429	0.20223259	-1.0322085	0.40276671	0.023887156	-0.77109692	0.49405266	0.076012438	-0.99850132	0.82177407	-0.11456486	-0.96180047	0.85703125	0.25845197	-0.90547612	0.90752629	-0.062989147	-0.8912831	0.93809527	0.1757454	-1.0659934	0.98231186	0.060591454	-0.88331917	1.3769775	-0.092175017	-0.91619907	1.3765278	0.23632286	-0.96407259	1.431368	0.072735507	-1.0212149	1.0300934	-0.17107669	-1.0678392	1.0452703	0.30820096	-0.81348509	0.85538947	-0.15651155	-0.95168056	0.80157941	0.34562314
62	0.244	-1.3859644	0.10400473	-0.044895177	-0.63379219	0.040217887	0.11367042	-1.4045266	0.25998484	-0.079641509	-0.78181598	0.05249128	0.15216331	-1.3831784	0.24084906	0.015304393	-0.77458526	0.092000015	0.059328049	-1.4649761	0.30651413	-0.03050381	-0.84895016	0.03233759	0.10297854	-1.0235055	0.41717444	-0.10067516	-0.74981033	0.50980365	0.20227813	-1.0184824	0.40339779	0.025181052	-0.7685197	0.49391071	0.075987113	-0.99187471	0.82277809	-0.11424346	-0.95619904	0.85860737	0.25861827	-0.89937947	0.90899841	-0.062752696	-0.8843781	0.93961251	0.1759787	-1.0599403	0.98406745	0.061005748	-0.87709075	1.3783529	-0.092075569	-0.90916067	1.3779108	0.23652402	-0.9574915	1.4329983	0.073292341	-1.0156495	1.031707	-0.17065582	-1.0607635	1.0464935	0.30886381	-0.80923563	0.85521479	-0.15670068	-0.94312678	0.80307079	0.34558336
63	0.248	-1.3706163	0.1065484	-0.045185837	-0.6337198	0.040200141	0.11343552	-1.3905571	0.26214086	-0.078866345	-0.78121363	0.0527501	0.15166317	-1.3696756	0.24271723	0.016285072	-0.77425244	0.092023592	0.059209309	-1.4516459	0.30817247	-0.029845215	-0.84894769	0.032440349	0.10288578	-1.0091115	0.41819864	-0.1002554	-0.74673547	0.50953331	0.20232245	-1.0039098	0.40422158	0.026509454	-0.76625366	0.49375013	0.076263607	-0.98527732	0.82396788	-0.11393305	-0.95194012	0.86006752	0.25850295	-0.89334187	0.91058743	-0.062528988	-0.87748196	0.9412142	0.17618598	-1.0539213	0.98590107	0.061437823	-0.87089988	1.3798308	-0.091973891	-0.90216588	1.3793924	0.23671029	-0.95096408	1.4346971	0.073805564	-1.0100052	1.0333999	-0.17008875	-1.0537235	1.0478099	0.30949856	-0.80507453	0.85513553	-0.15689015	-0.93461688	0.80468693	0.34551445
64	0.252	-1.3549396	0.10882785	-0.045317909	-0.63371251	0.040176164	0.11325224	-1.3763993	0.26397766	-0.078101797	-0.78116119	0.05310756	0.15140263	-1.3553523	0.24463937	0.016951031	-0.77402055	0.09204298	0.059115301	-1.4383977	0.30945505	-0.029047312	-0.84903138	0.032355109	0.10283396	-0.99486082	0.41939394	-0.099609403	-0.7441058	0.50914338	0.20233163	-0.98860455	0.40522947	0.027889593	-0.7642751	0.49359478	0.076853444	-0.97873052	0.8253275	-0.11361008	-0.947934	0.8615707	0.25835593	-0.88737449	0.91228798	-0.062306223	-0.87085408	0.94284682	0.17634292	-1.0478993	0.9878173	0.061904404	-0.86476967	1.3814097	-0.091871685	-0.8952174	1.3809703	0.23688789	-0.94448808	1.4364563	0.074269177	-1.004138	1.0351528	-0.16908154	-1.0467184	1.0492198	0.31009919	-0.80100404	0.85515697	-0.15707294	-0.92617024	0.80642148	0.34542915
65	0.256	-1.3389433	0.11086052	-0.045282474	-0.63375874	0.040166243	0.11312323	-1.3620853	0.26549912	-0.077353361	-0.78143872	0.053385116	0.15137765	-1.3404584	0.24651018	0.017415333	-0.77392562	0.092049992	0.059051142	-1.4251189	0.31039365	-0.028200466	-0.84916293	0.032239244	0.10277329	-0.98082009	0.42074935	-0.098641092	-0.74180058	0.50868541	0.20234606	-0.97315849	0.40642028	0.029330266	-0.76241787	0.49346421	0.077559041	-0.97225459	0.82684218	-0.11326692	-0.94307986	0.86329129	0.25842734	-0.88150199	0.91409788	-0.062076851	-0.86478563	0.9444564	0.17642226	-1.0418898	0.98978813	0.06239893	-0.85871648	1.3830917	-0.091765547	-0.88833715	1.3826479	0.23706738	-0.93805401	1.4382749	0.074705346	-0.99812951	1.0369797	-0.16773901	-1.0397532	1.0507229	0.31066988	-0.79702757	0.85528449	-0.15723908	-0.91779516	0.80827614	0.34533551
66	0.26	-1.3226419	0.11265857	-0.045067714	-0.63384741	0.040193064	0.11304602	-1.3476375	0.26670237	-0.076621006	-0.78165926	0.053530427	0.15136029	-1.325264	0.24820705	0.017805938	-0.77393252	0.092057513	0.059033657	-1.4116634	0.31099987	-0.027466928	-0.84934122	0.032191951	0.10270703	-0.96677549	0.422328	-0.097623872	-0.73958563	0.50824593	0.20240837	-0.95821428	0.40781934	0.030832097	-0.76048439	0.49337115	0.078126774	-0.96585405	0.82850297	-0.11290742	-0.9372307	0.86524835	0.25874926	-0.87573672	0.91601952	-0.061834192	-0.85932945	0.94603623	0.17643717	-1.0359321	0.99179421	0.062895038	-0.85273586	1.3848737	-0.091645481	-0.88154812	1.3844245	0.23725702	-0.93165175	1.4401557	0.075141726	-0.99226039	1.0389296	-0.16652348	-1.0328346	1.0523154	0.31121851	-0.79315655	0.85552348	-0.15737735	-0.90949219	0.81025572	0.34523572
67	0.264	-1.3060712	0.11421705	-0.044651256	-0.63397046	0.040258222	0.11301932	-1.3330631	0.26758863	-0.075897739	-0.78165354	0.053581112	0.1512419	-1.3100732	0.24962883	0.018264924	-0.77396936	0.092084922	0.059075796	-1.3980026	0.31127304	-0.026916672	-0.8495497	0.032200076	0.10266041	-0.95264522	0.42416691	-0.096697693	-0.73726163	0.50794729	0.20249074	-0.94392384	0.40945634	0.032381616	-0.75840926	0.49332256	0.078462488	-0.95952375	0.83029793	-0.11253643	-0.93088164	0.86733912	0.25920934	-0.87004407	0.91805678	-0.061563993	-0.8541559	0.94763934	0.17645567	-1.030034	0.99384743	0.063367388	-0.8468235	1.3867462	-0.091510498	-0.87485126	1.3862884	0.23745609	-0.92528533	1.4420987	0.075551568	-0.98670809	1.0410322	-0.16572937	-1.0259634	1.053987	0.31174807	-0.78940054	0.85587753	-0.15747835	-0.90125908	0.81235776	0.34513574
68	0.268	-1.2893068	0.11551619	-0.043990793	-0.63412173	0.040339395	0.11304878	-1.3183557	0.26816669	-0.075177266	-0.78156376	0.053598109	0.1511416	-1.295142	0.25070252	0.018923766	-0.77400158	0.092136729	0.059175427	-1.3841883	0.31120942	-0.026527154	-0.84975088	0.032163331	0.10265264	-0.93866213	0.42622009	-0.095652783	-0.73483989	0.50786336	0.20256484	-0.93005711	0.41133514	0.033946444	-0.75627027	0.49332128	0.078636991	-0.95326459	0.83221368	-0.11216632	-0.92449017	0.86945756	0.25970373	-0.86435919	0.92021225	-0.061247339	-0.84885294	0.94932041	0.17654667	-1.0241739	0.99595243	0.063815006	-0.84098399	1.3886993	-0.091371103	-0.86823396	1.3882276	0.23766099	-0.91899101	1.4441032	0.075796039	-0.98139255	1.0432647	-0.16524395	-1.0191332	1.0557267	0.31225852	-0.78575151	0.85634331	-0.15753872	-0.89308821	0.81457293	0.34504581
69	0.272	-1.2724522	0.1165359	-0.043042662	-0.63429879	0.04041366	0.11314293	-1.3035049	0.26845082	-0.074459255	-0.78157214	0.053654051	0.15115071	-1.2805077	0.25143031	0.019785575	-0.77405428	0.092203597	0.059317981	-1.3702645	0.31080079	-0.026239364	-0.84994298	0.031978479	0.1027031	-0.92507028	0.42839886	-0.094245928	-0.7325815	0.50794643	0.20270895	-0.91639215	0.41343252	0.035487121	-0.75414462	0.49336761	0.078725703	-0.94708366	0.83424082	-0.11181643	-0.91827139	0.87154732	0.26018039	-0.85866287	0.92247591	-0.060882565	-0.84330363	0.95107732	0.17672048	-1.0183419	0.99808579	0.064250489	-0.83520461	1.3907248	-0.091232533	-0.86168677	1.3902403	0.23787369	-0.91283007	1.4461694	0.075665103	-0.97613067	1.0455819	-0.16480037	-1.0123341	1.0575285	0.31275274	-0.78218919	0.85690956	-0.15756462	-0.88497122	0.81689143	0.34496876
70	0.276	-1.2555455	0.11727684	-0.041821782	-0.63450417	0.04047693	0.1133038	-1.2885155	0.26844936	-0.073735962	-0.78172392	0.053793449	0.15123603	-1.2660253	0.251877	0.020733084	-0.77416256	0.092283062	0.059491142	-1.3562459	0.31003449	-0.025998387	-0.85015977	0.031646311	0.10281677	-0.91188565	0.43061459	-0.092401875	-0.73074895	0.50808354	0.20303018	-0.90286174	0.41572501	0.036981897	-0.75198797	0.49346085	0.078697766	-0.94097519	0.83636909	-0.11149403	-0.91228508	0.87359172	0.26061927	-0.85302194	0.92481567	-0.060498408	-0.83764711	0.95287094	0.17694722	-1.012546	1.0002319	0.064680315	-0.82943875	1.3928132	-0.09108198	-0.85520663	1.3923319	0.23809985	-0.90681935	1.4482893	0.075101212	-0.97082536	1.0479491	-0.16424806	-1.0055574	1.0593893	0.31323448	-0.77869882	0.85756581	-0.15756837	-0.87690892	0.81930473	0.34489475
71	0.28	-1.2384734	0.11777699	-0.040439359	-0.6347396	0.04054108	0.1135195	-1.273408	0.26815964	-0.073001461	-0.78196164	0.053979976	0.15135644	-1.2514204	0.25210454	0.021643192	-0.77433965	0.092384417	0.059694652	-1.3421334	0.30890261	-0.02577612	-0.85039461	0.031300388	0.10295147	-0.89883973	0.4328444	-0.090284455	-0.72932347	0.50819338	0.20350467	-0.88950691	0.41820689	0.038448044	-0.74972525	0.49359772	0.07851279	-0.93491001	0.83858801	-0.11118889	-0.90653115	0.87558853	0.26101514	-0.84751338	0.92719527	-0.060129795	-0.83202229	0.95467324	0.17720933	-1.0067828	1.0024042	0.065120052	-0.82364371	1.3949518	-0.090898257	-0.84879171	1.3945024	0.23833952	-0.90086488	1.4504348	0.074393898	-0.96548822	1.0503499	-0.16358202	-0.99879916	1.0613044	0.31370368	-0.77527398	0.85830897	-0.15756061	-0.86890955	0.82179956	0.34480846
72	0.284	-1.2210699	0.11808902	-0.039026233	-0.63499923	0.040616459	0.11376395	-1.2581997	0.26758069	-0.072271782	-0.78220326	0.05413895	0.15149956	-1.2363999	0.25213487	0.022461687	-0.77458193	0.092514256	0.05993302	-1.3279231	0.30740936	-0.025561857	-0.85059055	0.031085555	0.10304339	-0.88553601	0.4352113	-0.088294933	-0.72807998	0.50825826	0.20400643	-0.87635907	0.42088413	0.039931216	-0.74744839	0.49376725	0.078297746	-0.92884447	0.84089623	-0.11088815	-0.90099726	0.87753803	0.2613685	-0.84213012	0.92960045	-0.059786612	-0.82643644	0.95647546	0.1775113	-1.0010268	1.0046235	0.065596936	-0.81784677	1.3971236	-0.090681427	-0.84243669	1.396741	0.2385838	-0.89483147	1.4525696	0.073959927	-0.96016563	1.0527803	-0.16285275	-0.99206036	1.0632669	0.31415976	-0.77190737	0.85913583	-0.15754939	-0.86098098	0.82435504	0.34470035
